<?xml version="1.0" standalone="no"?>
<!DOCTYPE svg PUBLIC "-//W3C//DTD SVG 20010904//EN"
 "http://www.w3.org/TR/2001/REC-SVG-20010904/DTD/svg10.dtd">
<svg version="1.0" xmlns="http://www.w3.org/2000/svg"
 width="100.000000pt" height="100.000000pt" viewBox="0 0 100.000000 100.000000"
 preserveAspectRatio="xMidYMid meet">
<metadata>
Created by potrace 1.14, written by Peter Selinger 2001-2017
</metadata>
<g transform="translate(0.000000,100.000000) scale(0.100000,-0.100000)"
fill="#000000" stroke="none">
<path d="M20 920 c-19 -19 -20 -33 -20 -440 l0 -420 500 0 500 0 0 420 c0 407
-1 421 -20 440 -19 19 -33 20 -480 20 -447 0 -461 -1 -480 -20z m938 -62 l3
-38 -460 0 -461 0 0 33 c0 19 3 37 7 40 3 4 209 6 457 5 l451 -3 3 -37z m2
-418 l0 -340 -460 0 -460 0 0 340 0 340 460 0 460 0 0 -340z"/>
<path d="M544 643 c-14 -32 -30 -67 -34 -78 -5 -11 -36 -89 -71 -173 -46 -115
-59 -156 -50 -165 7 -7 14 -8 21 -1 17 17 190 448 185 461 -9 26 -26 12 -51
-44z"/>
<path d="M250 545 c-30 -19 -64 -41 -75 -49 l-20 -16 20 -16 c44 -35 139 -85
151 -80 25 10 15 25 -41 58 -30 18 -55 35 -55 39 0 3 12 12 28 19 50 26 82 51
82 66 0 22 -30 15 -90 -21z"/>
<path d="M664 569 c-7 -12 20 -37 74 -66 17 -10 32 -20 32 -23 0 -3 -23 -19
-52 -35 -54 -32 -69 -51 -45 -61 19 -7 162 78 162 96 0 13 -137 100 -157 100
-4 0 -10 -5 -14 -11z"/>
</g>
</svg>
