<?xml version="1.0" standalone="no"?>
<!DOCTYPE svg PUBLIC "-//W3C//DTD SVG 20010904//EN"
 "http://www.w3.org/TR/2001/REC-SVG-20010904/DTD/svg10.dtd">
<svg version="1.0" xmlns="http://www.w3.org/2000/svg"
 width="512.000000pt" height="512.000000pt" viewBox="0 0 512.000000 512.000000"
 preserveAspectRatio="xMidYMid meet">
<metadata>
Created by potrace 1.14, written by Peter Selinger 2001-2017
</metadata>
<g transform="translate(0.000000,512.000000) scale(0.100000,-0.100000)"
fill="#000000" stroke="none">
<path d="M245 4446 c-88 -28 -165 -95 -212 -186 l-28 -55 -3 -1625 -2 -1626
21 -62 c27 -80 96 -157 176 -197 l58 -30 2305 0 2305 0 58 29 c82 41 152 122
178 206 19 64 19 97 17 1685 l-3 1620 -28 55 c-16 30 -38 66 -50 81 -24 27
-94 76 -142 99 -26 13 -338 15 -2320 17 -1817 1 -2298 -1 -2330 -11z m3139
-410 c45 -34 69 -79 69 -131 -1 -152 -171 -230 -282 -129 -93 84 -67 235 49
283 44 19 124 8 164 -23z m547 20 c65 -27 101 -84 101 -156 -1 -74 -29 -119
-99 -154 -69 -35 -152 -12 -207 57 -51 63 -39 171 24 225 48 41 122 53 181 28z
m582 0 c120 -51 135 -219 26 -297 -41 -29 -124 -35 -168 -12 -103 54 -128 183
-52 267 49 53 127 71 194 42z m401 -1841 c0 -1193 -1 -1272 -18 -1297 -9 -14
-29 -30 -44 -35 -15 -5 -1026 -9 -2300 -8 l-2274 0 -29 33 -29 32 0 1275 0
1275 2347 -2 2347 -3 0 -1270z"/>
<path d="M2035 2805 c-121 -74 -328 -200 -461 -280 l-241 -147 1 -179 1 -180
88 -54 c49 -30 93 -55 98 -55 5 0 9 -4 9 -10 0 -5 5 -10 11 -10 6 0 34 -15 62
-34 83 -53 634 -385 651 -392 14 -5 16 17 16 203 l0 210 -166 94 c-179 101
-198 111 -316 177 -43 24 -78 46 -78 50 0 6 410 239 521 297 l38 20 1 213 c0
116 -3 212 -7 211 -5 0 -107 -60 -228 -134z"/>
<path d="M2850 2731 c0 -155 3 -211 13 -218 6 -6 37 -24 67 -40 30 -17 91 -51
135 -76 133 -75 187 -105 267 -149 43 -24 78 -46 78 -49 0 -4 -126 -78 -280
-165 l-280 -157 0 -213 0 -213 158 96 c86 53 168 103 182 113 14 9 32 20 40
23 8 3 137 80 285 170 l270 165 1 179 1 180 -31 20 c-32 21 -778 472 -818 495
-12 7 -34 21 -47 31 -13 9 -28 17 -32 17 -5 0 -9 -94 -9 -209z"/>
</g>
</svg>
